<?xml version="1.0" encoding="UTF-8"?>
<!DOCTYPE svg PUBLIC "-//W3C//DTD SVG 1.1//EN" "http://www.w3.org/Graphics/SVG/1.1/DTD/svg11.dtd">
<svg xmlns="http://www.w3.org/2000/svg" version="1.1" width="200px" height="218px" style="shape-rendering:geometricPrecision; text-rendering:geometricPrecision; image-rendering:optimizeQuality; fill-rule:evenodd; clip-rule:evenodd" xmlns:xlink="http://www.w3.org/1999/xlink">
<g><path style="opacity:1" fill="#fefefd" d="M -0.5,-0.5 C 66.1667,-0.5 132.833,-0.5 199.5,-0.5C 199.5,72.1667 199.5,144.833 199.5,217.5C 132.833,217.5 66.1667,217.5 -0.5,217.5C -0.5,144.833 -0.5,72.1667 -0.5,-0.5 Z"/></g>
<g><path style="opacity:1" fill="#42ab07" d="M 173.5,35.5 C 172.662,35.8417 172.328,36.5084 172.5,37.5C 172.167,37.5 171.833,37.5 171.5,37.5C 169.213,33.8781 166.547,30.5448 163.5,27.5C 164.496,27.4142 165.329,27.7476 166,28.5C 166.667,26.1667 166.667,23.8333 166,21.5C 165.667,23.1667 165.333,24.8333 165,26.5C 163.167,25.3333 161.333,24.1667 159.5,23C 157.587,19.6319 155.087,16.7986 152,14.5C 149.285,15.0691 146.785,16.0691 144.5,17.5C 140.269,15.913 136.435,16.5797 133,19.5C 129.582,17.3391 125.749,16.1725 121.5,16C 124.167,15.6667 126.833,15.3333 129.5,15C 125.179,14.501 120.846,14.3343 116.5,14.5C 115.46,10.2201 115.294,5.88678 116,1.5C 119.137,3.9856 122.637,5.81894 126.5,7C 138.669,8.92854 150.669,11.5952 162.5,15C 170.74,19.3093 174.406,26.1427 173.5,35.5 Z"/></g>
<g><path style="opacity:1" fill="#239503" d="M 163.5,27.5 C 160.167,27.1667 156.833,26.8333 153.5,26.5C 154.461,29.4261 155.127,32.4261 155.5,35.5C 152.5,35.5 149.5,35.5 146.5,35.5C 145.947,33.0607 145.947,30.7273 146.5,28.5C 145.975,27.8076 145.308,27.3076 144.5,27C 146.994,23.9104 146.994,20.7437 144.5,17.5C 146.785,16.0691 149.285,15.0691 152,14.5C 155.087,16.7986 157.587,19.6319 159.5,23C 161.333,24.1667 163.167,25.3333 165,26.5C 165.333,24.8333 165.667,23.1667 166,21.5C 166.667,23.8333 166.667,26.1667 166,28.5C 165.329,27.7476 164.496,27.4142 163.5,27.5 Z"/></g>
<g><path style="opacity:1" fill="#50b906" d="M 116.5,14.5 C 120.846,14.3343 125.179,14.501 129.5,15C 126.833,15.3333 124.167,15.6667 121.5,16C 125.749,16.1725 129.582,17.3391 133,19.5C 136.435,16.5797 140.269,15.913 144.5,17.5C 146.994,20.7437 146.994,23.9104 144.5,27C 145.308,27.3076 145.975,27.8076 146.5,28.5C 145.947,30.7273 145.947,33.0607 146.5,35.5C 145.833,35.5 145.167,35.5 144.5,35.5C 140.163,35.4159 136.163,34.4159 132.5,32.5C 134.861,32.6741 137.194,33.0074 139.5,33.5C 139.33,32.1779 139.663,31.0113 140.5,30C 136.248,29.5404 132.915,27.5404 130.5,24C 127.05,22.5713 123.717,22.4047 120.5,23.5C 118.408,20.9116 117.075,17.9116 116.5,14.5 Z"/></g>
<g><path style="opacity:1" fill="#0f8606" d="M 163.5,27.5 C 166.547,30.5448 169.213,33.8781 171.5,37.5C 162.317,37.282 153.317,36.6153 144.5,35.5C 145.167,35.5 145.833,35.5 146.5,35.5C 149.5,35.5 152.5,35.5 155.5,35.5C 155.127,32.4261 154.461,29.4261 153.5,26.5C 156.833,26.8333 160.167,27.1667 163.5,27.5 Z"/></g>
<g><path style="opacity:1" fill="#7ed206" d="M 132.5,32.5 C 127.363,31.032 123.363,28.032 120.5,23.5C 123.717,22.4047 127.05,22.5713 130.5,24C 132.915,27.5404 136.248,29.5404 140.5,30C 139.663,31.0113 139.33,32.1779 139.5,33.5C 137.194,33.0074 134.861,32.6741 132.5,32.5 Z"/></g>
<g><path style="opacity:1" fill="#fae302" d="M 128.5,39.5 C 130.686,41.8233 133.353,43.6566 136.5,45C 137.252,45.6708 137.586,46.5041 137.5,47.5C 120.055,37.1404 102.055,35.9738 83.5,44C 96.6847,41.4422 109.685,42.4422 122.5,47C 126.56,48.6891 130.227,50.8558 133.5,53.5C 127.929,64.2564 122.096,74.9231 116,85.5C 113.805,87.9304 111.138,89.5971 108,90.5C 107.333,89.8333 106.667,89.1667 106,88.5C 105.096,91.2334 103.596,93.5667 101.5,95.5C 98.2179,96.9381 95.2179,98.7714 92.5,101C 89.8947,104.694 86.7281,107.86 83,110.5C 72.4539,123.471 67.4539,138.471 68,155.5C 67.6258,156.416 67.1258,157.25 66.5,158C 67.4158,158.278 68.0825,158.778 68.5,159.5C 64.9581,159.187 61.6248,159.521 58.5,160.5C 57.5,160.5 56.5,160.5 55.5,160.5C 31.3,134.433 26.1333,105.099 40,72.5C 45.9706,64.1934 53.4706,57.6934 62.5,53C 31.9569,61.2246 15.6236,81.2246 13.5,113C 13.3935,122.407 15.5601,131.24 20,139.5C 23.6659,144.661 27.4992,149.661 31.5,154.5C 24.5582,153.091 17.5582,151.924 10.5,151C 6.20826,147.915 3.87493,143.749 3.5,138.5C 5.05491,135.06 6.88825,131.727 9,128.5C 7.84922,98.3067 19.0159,73.8067 42.5,55C 68.5277,34.8329 97.1944,29.6662 128.5,39.5 Z"/></g>
<g><path style="opacity:1" fill="#fcef00" d="M 137.5,47.5 C 145.171,51.9843 150.338,58.3177 153,66.5C 151.846,67.7433 150.512,68.7433 149,69.5C 145.001,63.0018 139.835,57.6685 133.5,53.5C 130.227,50.8558 126.56,48.6891 122.5,47C 109.685,42.4422 96.6847,41.4422 83.5,44C 102.055,35.9738 120.055,37.1404 137.5,47.5 Z"/></g>
<g><path style="opacity:1" fill="#86b53b" d="M 173.5,35.5 C 174.627,39.6055 176.293,43.2721 178.5,46.5C 177.5,49.5 175.5,51.5 172.5,52.5C 172.5,51.5 172.5,50.5 172.5,49.5C 173.725,48.8478 174.392,47.6811 174.5,46C 174.136,43.0788 173.469,40.2455 172.5,37.5C 172.328,36.5084 172.662,35.8417 173.5,35.5 Z"/></g>
<g><path style="opacity:1" fill="#5fb317" d="M 178.5,46.5 C 180.849,46.4583 182.182,47.6249 182.5,50C 179.181,52.9941 175.514,55.4941 171.5,57.5C 169.071,57.585 167.071,58.585 165.5,60.5C 162.875,59.1353 162.875,57.802 165.5,56.5C 168.032,55.4043 170.365,54.0709 172.5,52.5C 175.5,51.5 177.5,49.5 178.5,46.5 Z"/></g>
<g><path style="opacity:1" fill="#fcf200" d="M 55.5,160.5 C 53.1815,160.992 51.1815,161.992 49.5,163.5C 48.1667,163.833 46.8333,164.167 45.5,164.5C 40.4812,161.657 35.8145,158.324 31.5,154.5C 27.4992,149.661 23.6659,144.661 20,139.5C 15.5601,131.24 13.3935,122.407 13.5,113C 15.6236,81.2246 31.9569,61.2246 62.5,53C 53.4706,57.6934 45.9706,64.1934 40,72.5C 26.1333,105.099 31.3,134.433 55.5,160.5 Z"/></g>
<g><path style="opacity:1" fill="#fcde01" d="M 128.5,39.5 C 133.536,40.851 138.202,43.0176 142.5,46C 147.633,46.8415 152.633,48.0082 157.5,49.5C 157.5,50.5 157.5,51.5 157.5,52.5C 156.761,52.369 156.094,52.5357 155.5,53C 158.247,57.5337 157.914,61.8671 154.5,66C 157.283,71.1811 158.95,76.6811 159.5,82.5C 159.423,86.2148 159.756,89.8815 160.5,93.5C 152.877,90.3709 144.877,88.3709 136.5,87.5C 134.36,88.2542 132.194,88.9209 130,89.5C 128.342,89.3248 127.009,88.6582 126,87.5C 119.373,88.7066 112.873,90.5399 106.5,93C 104.68,93.9794 103.513,95.4794 103,97.5C 102.722,96.5842 102.222,95.9175 101.5,95.5C 103.596,93.5667 105.096,91.2334 106,88.5C 106.667,89.1667 107.333,89.8333 108,90.5C 111.138,89.5971 113.805,87.9304 116,85.5C 122.096,74.9231 127.929,64.2564 133.5,53.5C 139.835,57.6685 145.001,63.0018 149,69.5C 150.512,68.7433 151.846,67.7433 153,66.5C 150.338,58.3177 145.171,51.9843 137.5,47.5C 137.586,46.5041 137.252,45.6708 136.5,45C 133.353,43.6566 130.686,41.8233 128.5,39.5 Z"/></g>
<g><path style="opacity:1" fill="#d1e49c" d="M 172.5,49.5 C 172.5,50.5 172.5,51.5 172.5,52.5C 170.365,54.0709 168.032,55.4043 165.5,56.5C 164.5,56.5 163.5,56.5 162.5,56.5C 162.567,55.0413 162.234,53.7079 161.5,52.5C 165.236,52.6014 168.903,51.6014 172.5,49.5 Z"/></g>
<g><path style="opacity:1" fill="#86ae1f" d="M 161.5,52.5 C 162.234,53.7079 162.567,55.0413 162.5,56.5C 163.5,56.5 164.5,56.5 165.5,56.5C 162.875,57.802 162.875,59.1353 165.5,60.5C 167.071,58.585 169.071,57.585 171.5,57.5C 169.984,59.1857 168.65,61.019 167.5,63C 168.148,64.4397 168.481,65.9397 168.5,67.5C 167.391,67.4431 166.391,67.1098 165.5,66.5C 165.368,63.2033 163.702,61.5367 160.5,61.5C 161.075,57.8453 160.075,54.8453 157.5,52.5C 157.5,51.5 157.5,50.5 157.5,49.5C 157.435,49.0618 157.601,48.7284 158,48.5C 158.66,50.3237 159.827,51.657 161.5,52.5 Z"/></g>
<g><path style="opacity:1" fill="#fabc00" d="M 157.5,52.5 C 160.075,54.8453 161.075,57.8453 160.5,61.5C 163.702,61.5367 165.368,63.2033 165.5,66.5C 164.924,73.3382 163.424,80.0048 161,86.5C 160.79,84.9419 160.29,83.6085 159.5,82.5C 158.95,76.6811 157.283,71.1811 154.5,66C 157.914,61.8671 158.247,57.5337 155.5,53C 156.094,52.5357 156.761,52.369 157.5,52.5 Z"/></g>
<g><path style="opacity:1" fill="#fad819" d="M 165.5,66.5 C 166.391,67.1098 167.391,67.4431 168.5,67.5C 166.889,74.4104 165.556,81.4104 164.5,88.5C 164.833,90.8333 165.167,93.1667 165.5,95.5C 167.941,96.709 169.941,98.3757 171.5,100.5C 171.083,101.124 170.416,101.457 169.5,101.5C 166.262,99.9751 162.929,98.6418 159.5,97.5C 159.389,96.8826 159.056,96.3826 158.5,96C 152.966,94.7043 147.633,93.2043 142.5,91.5C 130.524,88.9962 119.19,90.6628 108.5,96.5C 94.9073,101.759 85.2407,111.093 79.5,124.5C 79.5,124.833 79.5,125.167 79.5,125.5C 78.8501,125.804 78.1835,126.137 77.5,126.5C 68.4036,149.388 71.4036,170.388 86.5,189.5C 87.2383,194.082 89.7383,197.415 94,199.5C 94.4696,200.577 94.3029,201.577 93.5,202.5C 90.8333,200.167 88.1667,197.833 85.5,195.5C 83.823,193.46 82.1563,191.46 80.5,189.5C 77.5788,184.659 74.9121,179.659 72.5,174.5C 71.5,170.5 70.5,166.5 69.5,162.5C 69.7373,161.209 69.404,160.209 68.5,159.5C 68.0825,158.778 67.4158,158.278 66.5,158C 67.1258,157.25 67.6258,156.416 68,155.5C 67.4539,138.471 72.4539,123.471 83,110.5C 86.7281,107.86 89.8947,104.694 92.5,101C 95.2179,98.7714 98.2179,96.9381 101.5,95.5C 102.222,95.9175 102.722,96.5842 103,97.5C 103.513,95.4794 104.68,93.9794 106.5,93C 112.873,90.5399 119.373,88.7066 126,87.5C 127.009,88.6582 128.342,89.3248 130,89.5C 132.194,88.9209 134.36,88.2542 136.5,87.5C 144.877,88.3709 152.877,90.3709 160.5,93.5C 159.756,89.8815 159.423,86.2148 159.5,82.5C 160.29,83.6085 160.79,84.9419 161,86.5C 163.424,80.0048 164.924,73.3382 165.5,66.5 Z"/></g>
<g><path style="opacity:1" fill="#fefa9b" d="M 142.5,91.5 C 147.633,93.2043 152.966,94.7043 158.5,96C 159.056,96.3826 159.389,96.8826 159.5,97.5C 159.5,98.1667 159.5,98.8333 159.5,99.5C 146.788,93.6488 133.455,91.9821 119.5,94.5C 121.148,93.0735 123.148,92.2401 125.5,92C 131.157,91.5006 136.824,91.3339 142.5,91.5 Z"/></g>
<g><path style="opacity:1" fill="#fdf36e" d="M 142.5,91.5 C 136.824,91.3339 131.157,91.5006 125.5,92C 123.148,92.2401 121.148,93.0735 119.5,94.5C 116.772,94.1706 114.438,94.8372 112.5,96.5C 111.167,96.5 109.833,96.5 108.5,96.5C 119.19,90.6628 130.524,88.9962 142.5,91.5 Z"/></g>
<g><path style="opacity:1" fill="#fef8d2" d="M 159.5,99.5 C 162.462,99.9547 165.129,101.121 167.5,103C 169.766,104.426 171.432,106.26 172.5,108.5C 180.721,116.274 186.388,125.608 189.5,136.5C 190.358,144.132 190.691,151.799 190.5,159.5C 190.037,162.482 189.704,165.482 189.5,168.5C 189.31,171.855 188.31,174.855 186.5,177.5C 182.186,182.497 178.186,187.83 174.5,193.5C 174.167,193.5 173.833,193.5 173.5,193.5C 169.978,196.75 166.311,199.75 162.5,202.5C 161.514,204.408 159.848,205.408 157.5,205.5C 151.413,207.178 145.413,208.844 139.5,210.5C 134.489,210.666 129.489,210.499 124.5,210C 118.59,207.879 112.59,206.046 106.5,204.5C 104.111,201.6 101.111,199.767 97.5,199C 85.7652,188.705 78.2652,175.871 75,160.5C 74.3333,153.5 74.3333,146.5 75,139.5C 77.3709,135.097 78.8709,130.43 79.5,125.5C 79.5,125.167 79.5,124.833 79.5,124.5C 80.7079,123.766 82.0413,123.433 83.5,123.5C 84.252,119.737 85.9187,116.404 88.5,113.5C 92.3532,110.481 95.6865,106.981 98.5,103C 103.35,101.111 108.017,98.9447 112.5,96.5C 114.438,94.8372 116.772,94.1706 119.5,94.5C 133.455,91.9821 146.788,93.6488 159.5,99.5 Z"/></g>
<g><path style="opacity:1" fill="#fce110" d="M 138.5,112.5 C 137.522,112.189 136.855,111.522 136.5,110.5C 137.915,104.691 136.415,104.358 132,109.5C 131.517,108.552 131.351,107.552 131.5,106.5C 130.5,106.5 129.5,106.5 128.5,106.5C 128.649,107.552 128.483,108.552 128,109.5C 127.667,106.167 127.333,102.833 127,99.5C 124.712,101.8 123.045,104.467 122,107.5C 119.794,103.469 119.294,103.636 120.5,108C 118.65,109.845 118.317,111.845 119.5,114C 119.167,114.167 118.833,114.333 118.5,114.5C 117.757,113.092 116.923,111.759 116,110.5C 114.961,111.71 113.794,112.71 112.5,113.5C 107.549,105.538 109.882,100.704 119.5,99C 125.109,97.6159 130.775,97.2825 136.5,98C 137.931,98.4652 139.097,99.2986 140,100.5C 140.221,104.57 139.721,108.57 138.5,112.5 Z"/></g>
<g><path style="opacity:1" fill="#fef993" d="M 108.5,96.5 C 109.833,96.5 111.167,96.5 112.5,96.5C 108.017,98.9447 103.35,101.111 98.5,103C 95.6865,106.981 92.3532,110.481 88.5,113.5C 85.9187,116.404 84.252,119.737 83.5,123.5C 82.0413,123.433 80.7079,123.766 79.5,124.5C 85.2407,111.093 94.9073,101.759 108.5,96.5 Z"/></g>
<g><path style="opacity:1" fill="#fef891" d="M 172.5,108.5 C 176.107,108.379 178.273,110.045 179,113.5C 182.463,117.065 185.463,121.065 188,125.5C 188.758,129.685 190.091,133.685 192,137.5C 194.473,148.233 193.639,158.566 189.5,168.5C 189.704,165.482 190.037,162.482 190.5,159.5C 193.233,151.7 192.9,144.034 189.5,136.5C 186.388,125.608 180.721,116.274 172.5,108.5 Z"/></g>
<g><path style="opacity:1" fill="#facc12" d="M 138.5,112.5 C 138.34,114.199 138.506,115.866 139,117.5C 140.05,113.197 140.884,108.863 141.5,104.5C 143.466,105.255 143.8,106.421 142.5,108C 143.448,108.483 144.448,108.649 145.5,108.5C 145.896,111.044 145.229,113.211 143.5,115C 147.182,113.151 151.015,111.318 155,109.5C 158.99,111.467 159.49,114.134 156.5,117.5C 157.025,118.192 157.692,118.692 158.5,119C 157.328,119.419 156.328,120.085 155.5,121C 158.76,120.518 162.093,120.518 165.5,121C 163.95,123.525 161.783,125.359 159,126.5C 158.517,127.448 158.351,128.448 158.5,129.5C 158.5,129.833 158.5,130.167 158.5,130.5C 156.251,131.08 154.585,132.413 153.5,134.5C 150.911,135.419 148.911,137.086 147.5,139.5C 145.251,140.08 143.585,141.413 142.5,143.5C 140.564,144.259 138.731,145.259 137,146.5C 136.228,146.355 135.561,146.022 135,145.5C 135.046,142.2 135.212,138.866 135.5,135.5C 137.184,130.052 138.017,124.385 138,118.5C 136.746,122.77 135.746,127.104 135,131.5C 134.667,128.833 134.333,126.167 134,123.5C 133.393,127.537 133.56,131.537 134.5,135.5C 133.305,135.866 132.639,136.699 132.5,138C 134.126,140.989 133.626,143.489 131,145.5C 130.228,145.355 129.561,145.022 129,144.5C 128.51,145.793 128.343,147.127 128.5,148.5C 117.558,145.631 106.892,141.964 96.5,137.5C 95.8592,136.518 95.1925,135.518 94.5,134.5C 96.7834,133.457 98.7834,132.791 100.5,132.5C 99.0295,129.864 97.3628,127.364 95.5,125C 97.5689,124.676 97.9023,123.842 96.5,122.5C 98.358,118.042 100.525,117.708 103,121.5C 103.269,118.72 102.102,116.554 99.5,115C 102.097,112.967 104.263,113.467 106,116.5C 106.833,115.5 107.667,114.5 108.5,113.5C 109.213,115.435 110.213,115.768 111.5,114.5C 112.167,114.5 112.5,114.167 112.5,113.5C 113.794,112.71 114.961,111.71 116,110.5C 116.923,111.759 117.757,113.092 118.5,114.5C 118.833,114.333 119.167,114.167 119.5,114C 118.317,111.845 118.65,109.845 120.5,108C 119.294,103.636 119.794,103.469 122,107.5C 123.045,104.467 124.712,101.8 127,99.5C 127.333,102.833 127.667,106.167 128,109.5C 128.483,108.552 128.649,107.552 128.5,106.5C 129.5,106.5 130.5,106.5 131.5,106.5C 131.351,107.552 131.517,108.552 132,109.5C 136.415,104.358 137.915,104.691 136.5,110.5C 136.855,111.522 137.522,112.189 138.5,112.5 Z"/></g>
<g><path style="opacity:1" fill="#feeca2" d="M 114.5,118.5 C 117.415,121.663 119.248,125.33 120,129.5C 117.628,126.09 115.795,122.423 114.5,118.5 Z"/></g>
<g><path style="opacity:1" fill="#fdeaa8" d="M 135.5,135.5 C 135.167,135.5 134.833,135.5 134.5,135.5C 133.56,131.537 133.393,127.537 134,123.5C 134.333,126.167 134.667,128.833 135,131.5C 135.746,127.104 136.746,122.77 138,118.5C 138.017,124.385 137.184,130.052 135.5,135.5 Z"/></g>
<g><path style="opacity:1" fill="#fcdf11" d="M 162.5,151.5 C 162.389,150.883 162.056,150.383 161.5,150C 165.758,148.189 168.425,145.689 169.5,142.5C 168.448,142.649 167.448,142.483 166.5,142C 167.905,140.731 169.571,140.231 171.5,140.5C 171.5,139.167 171.5,137.833 171.5,136.5C 165.093,137.674 165.093,136.841 171.5,134C 168.653,133.056 166.153,133.556 164,135.5C 164.148,134.175 163.982,133.008 163.5,132C 166.414,128.875 166.081,127.709 162.5,128.5C 162.833,127.833 163.167,127.167 163.5,126.5C 161.589,127.075 159.922,128.075 158.5,129.5C 158.351,128.448 158.517,127.448 159,126.5C 161.783,125.359 163.95,123.525 165.5,121C 162.093,120.518 158.76,120.518 155.5,121C 156.328,120.085 157.328,119.419 158.5,119C 157.692,118.692 157.025,118.192 156.5,117.5C 159.49,114.134 158.99,111.467 155,109.5C 151.015,111.318 147.182,113.151 143.5,115C 145.229,113.211 145.896,111.044 145.5,108.5C 144.448,108.649 143.448,108.483 142.5,108C 143.8,106.421 143.466,105.255 141.5,104.5C 141.885,101.283 143.719,99.616 147,99.5C 155.872,101.767 163.538,106.101 170,112.5C 171.631,114.955 171.797,117.455 170.5,120C 176.091,120.915 179.924,124.081 182,129.5C 185.42,136.208 186.253,143.208 184.5,150.5C 177.04,151.227 169.707,151.56 162.5,151.5 Z"/></g>
<g><path style="opacity:1" fill="#feec90" d="M 163.5,126.5 C 164.562,124.243 166.228,123.077 168.5,123C 167.211,124.802 165.544,125.969 163.5,126.5 Z"/></g>
<g><path style="opacity:1" fill="#feed96" d="M 163.5,126.5 C 163.167,127.167 162.833,127.833 162.5,128.5C 161.395,129.6 160.062,130.267 158.5,130.5C 158.5,130.167 158.5,129.833 158.5,129.5C 159.922,128.075 161.589,127.075 163.5,126.5 Z"/></g>
<g><path style="opacity:1" fill="#fcdc0b" d="M 111.5,114.5 C 110.213,115.768 109.213,115.435 108.5,113.5C 107.667,114.5 106.833,115.5 106,116.5C 104.263,113.467 102.097,112.967 99.5,115C 102.102,116.554 103.269,118.72 103,121.5C 100.525,117.708 98.358,118.042 96.5,122.5C 97.9023,123.842 97.5689,124.676 95.5,125C 97.3628,127.364 99.0295,129.864 100.5,132.5C 98.7834,132.791 96.7834,133.457 94.5,134.5C 95.1925,135.518 95.8592,136.518 96.5,137.5C 82.9459,135.286 80.7792,128.952 90,118.5C 93.5338,114.631 97.3672,111.131 101.5,108C 107.017,106.669 110.351,108.836 111.5,114.5 Z"/></g>
<g><path style="opacity:1" fill="#fdea99" d="M 158.5,130.5 C 157.415,132.587 155.749,133.92 153.5,134.5C 154.585,132.413 156.251,131.08 158.5,130.5 Z"/></g>
<g><path style="opacity:1" fill="#fde7a0" d="M 153.5,134.5 C 152.089,136.914 150.089,138.581 147.5,139.5C 148.911,137.086 150.911,135.419 153.5,134.5 Z"/></g>
<g><path style="opacity:1" fill="#fed972" d="M 121.5,131.5 C 123.977,134.438 125.977,137.771 127.5,141.5C 127.154,142.696 126.654,142.696 126,141.5C 126.077,142.738 125.911,143.738 125.5,144.5C 123.306,142.685 122.972,140.518 124.5,138C 123.086,136.007 122.086,133.84 121.5,131.5 Z"/></g>
<g><path style="opacity:1" fill="#fdedaf" d="M 147.5,139.5 C 146.415,141.587 144.749,142.92 142.5,143.5C 143.585,141.413 145.251,140.08 147.5,139.5 Z"/></g>
<g><path style="opacity:1" fill="#f6d40d" d="M 3.5,138.5 C 3.87493,143.749 6.20826,147.915 10.5,151C 17.5582,151.924 24.5582,153.091 31.5,154.5C 35.8145,158.324 40.4812,161.657 45.5,164.5C 44.7377,166.262 43.4044,167.262 41.5,167.5C 37.315,164.831 32.9817,162.331 28.5,160C 22.8333,159.667 17.1667,159.333 11.5,159C 2.00357,154.662 -0.663094,147.828 3.5,138.5 Z"/></g>
<g><path style="opacity:1" fill="#faca12" d="M 104.5,142.5 C 112.574,144.799 120.241,147.966 127.5,152C 120.808,154.947 114.141,157.781 107.5,160.5C 104.145,160.69 101.145,161.69 98.5,163.5C 96.2143,163.595 94.2143,164.262 92.5,165.5C 90.7085,165.366 89.0418,165.699 87.5,166.5C 88.1906,162.464 90.5239,159.964 94.5,159C 92.3348,157.436 90.6681,157.603 89.5,159.5C 87.7367,160.954 86.4033,160.62 85.5,158.5C 86.7287,157.719 88.062,157.219 89.5,157C 80.4781,155.777 80.8114,154.777 90.5,154C 87.8333,153.667 85.1667,153.333 82.5,153C 81.1667,151.667 81.1667,150.333 82.5,149C 84.8333,148.667 87.1667,148.333 89.5,148C 88.5,147.667 87.5,147.333 86.5,147C 88.2746,145.561 90.2746,144.561 92.5,144C 91.6198,142.644 91.2865,141.144 91.5,139.5C 93.9928,139.329 95.8261,140.329 97,142.5C 97.9138,141.346 98.7471,141.513 99.5,143C 98.0439,143.423 97.5439,144.256 98,145.5C 99.0674,144.809 100.234,144.309 101.5,144C 100.304,143.346 100.304,142.846 101.5,142.5C 102.687,143.653 103.687,143.653 104.5,142.5 Z"/></g>
<g><path style="opacity:1" fill="#face1e" d="M 162.5,151.5 C 155.159,151.666 147.826,151.5 140.5,151C 139.572,150.612 138.905,149.945 138.5,149C 139.65,147.019 140.984,145.186 142.5,143.5C 144.749,142.92 146.415,141.587 147.5,139.5C 150.089,138.581 152.089,136.914 153.5,134.5C 155.749,133.92 157.415,132.587 158.5,130.5C 160.062,130.267 161.395,129.6 162.5,128.5C 166.081,127.709 166.414,128.875 163.5,132C 163.982,133.008 164.148,134.175 164,135.5C 166.153,133.556 168.653,133.056 171.5,134C 165.093,136.841 165.093,137.674 171.5,136.5C 171.5,137.833 171.5,139.167 171.5,140.5C 169.571,140.231 167.905,140.731 166.5,142C 167.448,142.483 168.448,142.649 169.5,142.5C 168.425,145.689 165.758,148.189 161.5,150C 162.056,150.383 162.389,150.883 162.5,151.5 Z"/></g>
<g><path style="opacity:1" fill="#fce68d" d="M 151.5,142.5 C 153.379,142.393 153.712,142.893 152.5,144C 150.35,145.59 148.017,146.257 145.5,146C 147.727,145.059 149.727,143.892 151.5,142.5 Z"/></g>
<g><path style="opacity:1" fill="#fffab5" d="M 189.5,136.5 C 192.9,144.034 193.233,151.7 190.5,159.5C 190.691,151.799 190.358,144.132 189.5,136.5 Z"/></g>
<g><path style="opacity:1" fill="#fde897" d="M 107.5,160.5 C 105.044,162.868 102.044,163.868 98.5,163.5C 101.145,161.69 104.145,160.69 107.5,160.5 Z"/></g>
<g><path style="opacity:1" fill="#face0f" d="M 137.5,173.5 C 138.117,173.611 138.617,173.944 139,174.5C 139.498,177.817 139.665,181.15 139.5,184.5C 138.689,188.66 138.689,192.994 139.5,197.5C 139.189,202.873 137.523,203.54 134.5,199.5C 133.738,200.628 133.071,201.795 132.5,203C 131.833,203.667 131.167,203.667 130.5,203C 129.848,199.143 129.515,195.31 129.5,191.5C 128.679,194.641 128.179,197.975 128,201.5C 127.612,202.428 126.945,203.095 126,203.5C 121.908,202.406 119.574,199.739 119,195.5C 118.059,197.061 116.892,198.395 115.5,199.5C 114.276,197.172 114.276,194.839 115.5,192.5C 114.214,192.524 112.88,192.19 111.5,191.5C 111.833,190.167 112.167,188.833 112.5,187.5C 114.588,185.664 115.921,183.331 116.5,180.5C 117.974,179.564 118.974,178.23 119.5,176.5C 121.017,176.489 122.184,175.823 123,174.5C 123.333,175.167 123.667,175.833 124,176.5C 125.768,173.168 127.101,169.834 128,166.5C 126.608,168.842 125.775,168.842 125.5,166.5C 126.735,163.699 128.235,161.032 130,158.5C 130.718,157.549 131.551,157.383 132.5,158C 134.594,166.042 136.427,174.209 138,182.5C 138.634,179.445 138.468,176.445 137.5,173.5 Z"/></g>
<g><path style="opacity:1" fill="#a2dd50" d="M 55.5,160.5 C 56.5,160.5 57.5,160.5 58.5,160.5C 60.1992,160.34 61.8659,160.506 63.5,161C 61.6063,162.079 61.273,163.413 62.5,165C 59.0337,167.114 56.3671,169.948 54.5,173.5C 52.7659,174.562 51.0992,174.562 49.5,173.5C 49.5,172.167 49.5,170.833 49.5,169.5C 51.9717,168.358 52.9717,166.358 52.5,163.5C 51.5,163.5 50.5,163.5 49.5,163.5C 51.1815,161.992 53.1815,160.992 55.5,160.5 Z"/></g>
<g><path style="opacity:1" fill="#fcdf0d" d="M 104.5,142.5 C 103.687,143.653 102.687,143.653 101.5,142.5C 100.304,142.846 100.304,143.346 101.5,144C 100.234,144.309 99.0674,144.809 98,145.5C 97.5439,144.256 98.0439,143.423 99.5,143C 98.7471,141.513 97.9138,141.346 97,142.5C 95.8261,140.329 93.9928,139.329 91.5,139.5C 91.2865,141.144 91.6198,142.644 92.5,144C 90.2746,144.561 88.2746,145.561 86.5,147C 87.5,147.333 88.5,147.667 89.5,148C 87.1667,148.333 84.8333,148.667 82.5,149C 81.1667,150.333 81.1667,151.667 82.5,153C 85.1667,153.333 87.8333,153.667 90.5,154C 80.8114,154.777 80.4781,155.777 89.5,157C 88.062,157.219 86.7287,157.719 85.5,158.5C 86.4033,160.62 87.7367,160.954 89.5,159.5C 90.6681,157.603 92.3348,157.436 94.5,159C 90.5239,159.964 88.1906,162.464 87.5,166.5C 82.8113,167.316 80.3113,165.316 80,160.5C 78.9122,152.64 79.5789,144.974 82,137.5C 82.804,136.196 83.9707,135.529 85.5,135.5C 92.0872,137.25 98.4205,139.583 104.5,142.5 Z"/></g>
<g><path style="opacity:1" fill="#feeb8e" d="M 98.5,163.5 C 98.1667,164.5 97.5,165.167 96.5,165.5C 95.1667,165.5 93.8333,165.5 92.5,165.5C 94.2143,164.262 96.2143,163.595 98.5,163.5 Z"/></g>
<g><path style="opacity:1" fill="#84d026" d="M 58.5,160.5 C 61.6248,159.521 64.9581,159.187 68.5,159.5C 69.404,160.209 69.7373,161.209 69.5,162.5C 67.2066,165.502 64.5399,168.335 61.5,171C 58.5958,171.133 56.2624,172.3 54.5,174.5C 54.5,174.167 54.5,173.833 54.5,173.5C 56.3671,169.948 59.0337,167.114 62.5,165C 61.273,163.413 61.6063,162.079 63.5,161C 61.8659,160.506 60.1992,160.34 58.5,160.5 Z"/></g>
<g><path style="opacity:1" fill="#fef5cd" d="M 173.5,164.5 C 175.549,164.706 175.883,165.539 174.5,167C 176.657,168.085 176.824,169.251 175,170.5C 174.601,170.272 174.435,169.938 174.5,169.5C 173.942,168.21 172.942,167.377 171.5,167C 173.178,166.516 173.844,165.683 173.5,164.5 Z"/></g>
<g><path style="opacity:1" fill="#fcde12" d="M 168.5,152.5 C 173.875,152.172 179.208,152.505 184.5,153.5C 186.406,163.982 183.406,173.482 175.5,182C 173.833,182.667 172.167,182.667 170.5,182C 167.935,179.92 165.268,178.087 162.5,176.5C 162.5,176.167 162.5,175.833 162.5,175.5C 163.978,175.762 165.311,175.429 166.5,174.5C 165.476,173.148 164.476,171.815 163.5,170.5C 164.833,170.5 166.167,170.5 167.5,170.5C 168.29,169.391 168.79,168.058 169,166.5C 170.488,168.16 172.321,169.16 174.5,169.5C 174.435,169.938 174.601,170.272 175,170.5C 176.824,169.251 176.657,168.085 174.5,167C 175.883,165.539 175.549,164.706 173.5,164.5C 172.048,163.698 170.382,163.198 168.5,163C 170.5,162.667 172.5,162.333 174.5,162C 173.386,160.43 172.053,159.097 170.5,158C 172.116,157.385 173.449,156.385 174.5,155C 172.498,153.981 170.498,153.148 168.5,152.5 Z"/></g>
<g><path style="opacity:1" fill="#fbd248" d="M 142.5,173.5 C 141.292,172.766 139.959,172.433 138.5,172.5C 138.754,170.599 138.42,169.933 137.5,170.5C 136.128,166.377 135.628,162.043 136,157.5C 136.995,156.934 137.828,156.267 138.5,155.5C 140.451,155.773 141.951,155.107 143,153.5C 144.236,155.307 144.57,157.307 144,159.5C 145.167,160.667 146.333,161.833 147.5,163C 144.819,161.887 142.153,160.387 139.5,158.5C 139.167,158.833 138.833,159.167 138.5,159.5C 140.859,163.974 140.359,164.308 137,160.5C 136.833,160.833 136.667,161.167 136.5,161.5C 139.034,165.234 141.034,169.234 142.5,173.5 Z"/></g>
<g><path style="opacity:1" fill="#f5c51c" d="M 125.5,166.5 C 125.775,168.842 126.608,168.842 128,166.5C 127.101,169.834 125.768,173.168 124,176.5C 123.667,175.833 123.333,175.167 123,174.5C 122.184,175.823 121.017,176.489 119.5,176.5C 119.804,175.85 120.137,175.183 120.5,174.5C 120.154,173.304 119.654,173.304 119,174.5C 117.878,176.407 117.045,178.407 116.5,180.5C 115.272,181.306 114.272,182.306 113.5,183.5C 112.5,183.5 111.5,183.5 110.5,183.5C 111.394,180.208 111.227,176.874 110,173.5C 109.167,175.5 108.333,177.5 107.5,179.5C 106.758,177.892 106.591,176.225 107,174.5C 104.19,177.197 103.357,176.697 104.5,173C 99.3718,171.438 99.3718,170.105 104.5,169C 101.471,168.461 98.4715,167.794 95.5,167C 96.056,166.617 96.3893,166.117 96.5,165.5C 97.5,165.167 98.1667,164.5 98.5,163.5C 102.044,163.868 105.044,162.868 107.5,160.5C 114.622,158.904 121.622,156.904 128.5,154.5C 128.224,158.481 126.89,162.148 124.5,165.5C 124.624,166.107 124.957,166.44 125.5,166.5 Z"/></g>
<g><path style="opacity:1" fill="#57b906" d="M 69.5,162.5 C 70.5,166.5 71.5,170.5 72.5,174.5C 70.9826,174.489 69.8159,173.823 69,172.5C 68.6258,173.416 68.1258,174.25 67.5,175C 64.3428,176.578 61.0094,177.578 57.5,178C 58.6956,178.654 58.6956,179.154 57.5,179.5C 56.7348,178.388 55.7348,177.721 54.5,177.5C 54.5,176.5 54.5,175.5 54.5,174.5C 56.2624,172.3 58.5958,171.133 61.5,171C 64.5399,168.335 67.2066,165.502 69.5,162.5 Z"/></g>
<g><path style="opacity:1" fill="#feea9a" d="M 154.5,169.5 C 157.431,171.091 160.098,173.091 162.5,175.5C 162.5,175.833 162.5,176.167 162.5,176.5C 160.938,176.267 159.605,175.6 158.5,174.5C 157.167,172.833 155.833,171.167 154.5,169.5 Z"/></g>
<g><path style="opacity:1" fill="#fde99b" d="M 119.5,176.5 C 118.974,178.23 117.974,179.564 116.5,180.5C 117.045,178.407 117.878,176.407 119,174.5C 119.654,173.304 120.154,173.304 120.5,174.5C 120.137,175.183 119.804,175.85 119.5,176.5 Z"/></g>
<g><path style="opacity:1" fill="#35a308" d="M 72.5,174.5 C 74.9121,179.659 77.5788,184.659 80.5,189.5C 77.505,192.045 74.3383,194.379 71,196.5C 70.3828,195.551 70.5494,194.718 71.5,194C 67.1066,193.304 63.44,191.304 60.5,188C 62.9757,187.32 64.809,188.153 66,190.5C 66.4922,189.451 66.3256,188.451 65.5,187.5C 67.0777,186.702 68.7444,186.202 70.5,186C 63.1272,186.239 55.7939,187.072 48.5,188.5C 47.1266,188.657 45.7932,188.49 44.5,188C 46.1078,183.374 48.9412,179.54 53,176.5C 53.3826,177.056 53.8826,177.389 54.5,177.5C 55.7348,177.721 56.7348,178.388 57.5,179.5C 58.6956,179.154 58.6956,178.654 57.5,178C 61.0094,177.578 64.3428,176.578 67.5,175C 68.1258,174.25 68.6258,173.416 69,172.5C 69.8159,173.823 70.9826,174.489 72.5,174.5 Z"/></g>
<g><path style="opacity:1" fill="#f9cc16" d="M 168.5,152.5 C 170.498,153.148 172.498,153.981 174.5,155C 173.449,156.385 172.116,157.385 170.5,158C 172.053,159.097 173.386,160.43 174.5,162C 172.5,162.333 170.5,162.667 168.5,163C 170.382,163.198 172.048,163.698 173.5,164.5C 173.844,165.683 173.178,166.516 171.5,167C 172.942,167.377 173.942,168.21 174.5,169.5C 172.321,169.16 170.488,168.16 169,166.5C 168.79,168.058 168.29,169.391 167.5,170.5C 166.548,169.548 165.548,168.548 164.5,167.5C 162.596,168.257 162.263,169.257 163.5,170.5C 164.476,171.815 165.476,173.148 166.5,174.5C 165.311,175.429 163.978,175.762 162.5,175.5C 160.098,173.091 157.431,171.091 154.5,169.5C 155.833,171.167 157.167,172.833 158.5,174.5C 157.552,175.978 156.219,176.978 154.5,177.5C 154.833,178.5 155.5,179.167 156.5,179.5C 158.794,181.041 158.794,182.375 156.5,183.5C 154.851,182.352 153.351,181.019 152,179.5C 151.837,181.387 152.671,182.887 154.5,184C 153.833,184.333 153.167,184.667 152.5,185C 154.167,186.667 155.833,188.333 157.5,190C 156.429,190.852 155.429,191.685 154.5,192.5C 154.167,192.5 153.833,192.5 153.5,192.5C 152.516,188.535 151.516,188.535 150.5,192.5C 148.866,192.032 147.7,191.032 147,189.5C 145.667,191.5 144.333,193.5 143,195.5C 142.578,193.645 142.078,191.811 141.5,190C 142.713,187.738 144.046,185.571 145.5,183.5C 146.797,182.151 146.63,180.818 145,179.5C 144.51,180.793 144.343,182.127 144.5,183.5C 143.71,182.391 143.21,181.058 143,179.5C 141.631,183.333 140.797,182.999 140.5,178.5C 140.724,176.545 141.391,174.879 142.5,173.5C 141.034,169.234 139.034,165.234 136.5,161.5C 136.667,161.167 136.833,160.833 137,160.5C 140.359,164.308 140.859,163.974 138.5,159.5C 138.833,159.167 139.167,158.833 139.5,158.5C 142.153,160.387 144.819,161.887 147.5,163C 146.333,161.833 145.167,160.667 144,159.5C 144.57,157.307 144.236,155.307 143,153.5C 141.951,155.107 140.451,155.773 138.5,155.5C 138.414,154.504 138.748,153.671 139.5,153C 149.161,152.5 158.828,152.334 168.5,152.5 Z"/></g>
<g><path style="opacity:1" fill="#fdeb9c" d="M 167.5,170.5 C 166.167,170.5 164.833,170.5 163.5,170.5C 162.263,169.257 162.596,168.257 164.5,167.5C 165.548,168.548 166.548,169.548 167.5,170.5 Z"/></g>
<g><path style="opacity:1" fill="#fdea99" d="M 154.5,169.5 C 152.456,168.969 150.789,167.802 149.5,166C 151.772,166.077 153.438,167.243 154.5,169.5 Z"/></g>
<g><path style="opacity:1" fill="#a7d88d" d="M 49.5,163.5 C 50.5,163.5 51.5,163.5 52.5,163.5C 52.9717,166.358 51.9717,168.358 49.5,169.5C 47.1928,172.638 44.3594,175.305 41,177.5C 39.8153,184.19 35.982,187.857 29.5,188.5C 29.5,188.167 29.5,187.833 29.5,187.5C 31.9614,179.911 35.9614,173.244 41.5,167.5C 43.4044,167.262 44.7377,166.262 45.5,164.5C 46.8333,164.167 48.1667,163.833 49.5,163.5 Z"/></g>
<g><path style="opacity:1" fill="#6dbe41" d="M 49.5,173.5 C 51.0992,174.562 52.7659,174.562 54.5,173.5C 54.5,173.833 54.5,174.167 54.5,174.5C 54.5,175.5 54.5,176.5 54.5,177.5C 53.8826,177.389 53.3826,177.056 53,176.5C 48.9412,179.54 46.1078,183.374 44.5,188C 45.7932,188.49 47.1266,188.657 48.5,188.5C 45.0055,189.644 42.0055,191.644 39.5,194.5C 36.1923,193.182 32.859,191.849 29.5,190.5C 28.2241,189.386 28.2241,188.386 29.5,187.5C 29.5,187.833 29.5,188.167 29.5,188.5C 31.1086,189.771 32.9419,190.771 35,191.5C 37.6561,188.678 40.4895,186.012 43.5,183.5C 45.9477,180.397 47.9477,177.064 49.5,173.5 Z"/></g>
<g><path style="opacity:1" fill="#fde999" d="M 116.5,180.5 C 115.921,183.331 114.588,185.664 112.5,187.5C 112.833,186.167 113.167,184.833 113.5,183.5C 114.272,182.306 115.272,181.306 116.5,180.5 Z"/></g>
<g><path style="opacity:1" fill="#fff89e" d="M 186.5,177.5 C 185.97,179.924 185.136,182.257 184,184.5C 181.017,187.649 177.85,190.649 174.5,193.5C 178.186,187.83 182.186,182.497 186.5,177.5 Z"/></g>
<g><path style="opacity:1" fill="#83c66a" d="M 49.5,169.5 C 49.5,170.833 49.5,172.167 49.5,173.5C 47.9477,177.064 45.9477,180.397 43.5,183.5C 40.4895,186.012 37.6561,188.678 35,191.5C 32.9419,190.771 31.1086,189.771 29.5,188.5C 35.982,187.857 39.8153,184.19 41,177.5C 44.3594,175.305 47.1928,172.638 49.5,169.5 Z"/></g>
<g><path style="opacity:1" fill="#feefa1" d="M 112.5,187.5 C 112.167,188.833 111.833,190.167 111.5,191.5C 110.833,191.833 110.167,192.167 109.5,192.5C 109.75,190.326 110.75,188.659 112.5,187.5 Z"/></g>
<g><path style="opacity:1" fill="#fcdf7d" d="M 122.5,186.5 C 124.167,186.5 125.833,186.5 127.5,186.5C 127.5,189.5 127.5,192.5 127.5,195.5C 125.089,195.137 123.589,196.137 123,198.5C 122.626,197.584 122.126,196.75 121.5,196C 122.893,194.829 123.727,193.329 124,191.5C 124.333,192.5 124.667,193.5 125,194.5C 125.167,193.833 125.333,193.167 125.5,192.5C 124.481,190.489 123.481,188.489 122.5,186.5 Z"/></g>
<g><path style="opacity:1" fill="#f9db0d" d="M 92.5,165.5 C 93.8333,165.5 95.1667,165.5 96.5,165.5C 96.3893,166.117 96.056,166.617 95.5,167C 98.4715,167.794 101.471,168.461 104.5,169C 99.3718,170.105 99.3718,171.438 104.5,173C 103.357,176.697 104.19,177.197 107,174.5C 106.591,176.225 106.758,177.892 107.5,179.5C 108.333,177.5 109.167,175.5 110,173.5C 111.227,176.874 111.394,180.208 110.5,183.5C 111.5,183.5 112.5,183.5 113.5,183.5C 113.167,184.833 112.833,186.167 112.5,187.5C 110.75,188.659 109.75,190.326 109.5,192.5C 106.812,195.892 103.478,196.392 99.5,194C 93.2023,189.029 88.369,182.863 85,175.5C 84.3333,173.5 84.3333,171.5 85,169.5C 87.6327,168.248 90.1327,166.914 92.5,165.5 Z"/></g>
<g><path style="opacity:1" fill="#fce8a5" d="M 129.5,191.5 C 129.459,187.757 130.126,187.59 131.5,191C 130.906,191.464 130.239,191.631 129.5,191.5 Z"/></g>
<g><path style="opacity:1" fill="#feed93" d="M 139.5,184.5 C 140.167,189.167 140.833,193.833 141.5,198.5C 141.167,198.5 140.833,198.5 140.5,198.5C 140.5,197.833 140.167,197.5 139.5,197.5C 138.689,192.994 138.689,188.66 139.5,184.5 Z"/></g>
<g><path style="opacity:1" fill="#48af08" d="M 80.5,189.5 C 82.1563,191.46 83.823,193.46 85.5,195.5C 79.4626,198.866 72.9626,200.199 66,199.5C 56.9029,199.189 48.0696,197.522 39.5,194.5C 42.0055,191.644 45.0055,189.644 48.5,188.5C 55.7939,187.072 63.1272,186.239 70.5,186C 68.7444,186.202 67.0777,186.702 65.5,187.5C 66.3256,188.451 66.4922,189.451 66,190.5C 64.809,188.153 62.9757,187.32 60.5,188C 63.44,191.304 67.1066,193.304 71.5,194C 70.5494,194.718 70.3828,195.551 71,196.5C 74.3383,194.379 77.505,192.045 80.5,189.5 Z"/></g>
<g><path style="opacity:1" fill="#fef994" d="M 79.5,125.5 C 78.8709,130.43 77.3709,135.097 75,139.5C 74.3333,146.5 74.3333,153.5 75,160.5C 78.2652,175.871 85.7652,188.705 97.5,199C 101.111,199.767 104.111,201.6 106.5,204.5C 112.59,206.046 118.59,207.879 124.5,210C 129.489,210.499 134.489,210.666 139.5,210.5C 124.338,212.952 110.338,209.785 97.5,201C 93.7021,197.188 90.0355,193.355 86.5,189.5C 71.4036,170.388 68.4036,149.388 77.5,126.5C 78.1835,126.137 78.8501,125.804 79.5,125.5 Z"/></g>
<g><path style="opacity:1" fill="#fcdf12" d="M 142.5,173.5 C 141.391,174.879 140.724,176.545 140.5,178.5C 140.797,182.999 141.631,183.333 143,179.5C 143.21,181.058 143.71,182.391 144.5,183.5C 144.833,183.5 145.167,183.5 145.5,183.5C 144.046,185.571 142.713,187.738 141.5,190C 142.078,191.811 142.578,193.645 143,195.5C 144.333,193.5 145.667,191.5 147,189.5C 147.7,191.032 148.866,192.032 150.5,192.5C 151.516,188.535 152.516,188.535 153.5,192.5C 153.207,193.643 153.207,194.977 153.5,196.5C 155.642,195.563 155.976,194.23 154.5,192.5C 155.429,191.685 156.429,190.852 157.5,190C 155.833,188.333 154.167,186.667 152.5,185C 153.167,184.667 153.833,184.333 154.5,184C 152.671,182.887 151.837,181.387 152,179.5C 153.351,181.019 154.851,182.352 156.5,183.5C 158.794,182.375 158.794,181.041 156.5,179.5C 157.043,179.44 157.376,179.107 157.5,178.5C 156.675,177.614 155.675,177.281 154.5,177.5C 156.219,176.978 157.552,175.978 158.5,174.5C 159.605,175.6 160.938,176.267 162.5,176.5C 164.502,179.334 167.002,181.667 170,183.5C 170.667,185.5 170.667,187.5 170,189.5C 163.308,197.594 154.808,202.094 144.5,203C 142.137,202.411 141.137,200.911 141.5,198.5C 140.833,193.833 140.167,189.167 139.5,184.5C 139.665,181.15 139.498,177.817 139,174.5C 138.617,173.944 138.117,173.611 137.5,173.5C 137.5,172.5 137.5,171.5 137.5,170.5C 138.42,169.933 138.754,170.599 138.5,172.5C 139.959,172.433 141.292,172.766 142.5,173.5 Z"/></g>
<g><path style="opacity:1" fill="#fef6bc" d="M 163.5,184.5 C 164.947,185.622 165.947,187.122 166.5,189C 164.539,188.489 163.539,186.989 163.5,184.5 Z"/></g>
<g><path style="opacity:1" fill="#fdf5da" d="M 145.5,183.5 C 145.167,183.5 144.833,183.5 144.5,183.5C 144.343,182.127 144.51,180.793 145,179.5C 146.63,180.818 146.797,182.151 145.5,183.5 Z"/></g>
<g><path style="opacity:1" fill="#fdea9c" d="M 154.5,177.5 C 155.675,177.281 156.675,177.614 157.5,178.5C 157.376,179.107 157.043,179.44 156.5,179.5C 155.5,179.167 154.833,178.5 154.5,177.5 Z"/></g>
<g><path style="opacity:1" fill="#fcde2e" d="M 159.5,97.5 C 162.929,98.6418 166.262,99.9751 169.5,101.5C 170.416,101.457 171.083,101.124 171.5,100.5C 190.273,114.726 198.773,133.726 197,157.5C 193.44,184.298 179.107,202.632 154,212.5C 131.961,219.923 111.794,216.589 93.5,202.5C 94.3029,201.577 94.4696,200.577 94,199.5C 89.7383,197.415 87.2383,194.082 86.5,189.5C 90.0355,193.355 93.7021,197.188 97.5,201C 110.338,209.785 124.338,212.952 139.5,210.5C 146.243,210.985 152.243,209.318 157.5,205.5C 159.848,205.408 161.514,204.408 162.5,202.5C 167.573,201.141 171.24,198.141 173.5,193.5C 173.833,193.5 174.167,193.5 174.5,193.5C 177.85,190.649 181.017,187.649 184,184.5C 185.136,182.257 185.97,179.924 186.5,177.5C 188.31,174.855 189.31,171.855 189.5,168.5C 193.639,158.566 194.473,148.233 192,137.5C 190.091,133.685 188.758,129.685 188,125.5C 185.463,121.065 182.463,117.065 179,113.5C 178.273,110.045 176.107,108.379 172.5,108.5C 171.432,106.26 169.766,104.426 167.5,103C 165.129,101.121 162.462,99.9547 159.5,99.5C 159.5,98.8333 159.5,98.1667 159.5,97.5 Z"/></g>
<g><path style="opacity:1" fill="#fefaa9" d="M 173.5,193.5 C 171.24,198.141 167.573,201.141 162.5,202.5C 166.311,199.75 169.978,196.75 173.5,193.5 Z"/></g>
<g><path style="opacity:1" fill="#feef92" d="M 153.5,192.5 C 153.833,192.5 154.167,192.5 154.5,192.5C 155.976,194.23 155.642,195.563 153.5,196.5C 153.207,194.977 153.207,193.643 153.5,192.5 Z"/></g>
<g><path style="opacity:1" fill="#fce117" d="M 111.5,191.5 C 112.88,192.19 114.214,192.524 115.5,192.5C 114.276,194.839 114.276,197.172 115.5,199.5C 116.892,198.395 118.059,197.061 119,195.5C 119.574,199.739 121.908,202.406 126,203.5C 126.945,203.095 127.612,202.428 128,201.5C 128.179,197.975 128.679,194.641 129.5,191.5C 129.515,195.31 129.848,199.143 130.5,203C 131.167,203.667 131.833,203.667 132.5,203C 133.071,201.795 133.738,200.628 134.5,199.5C 137.523,203.54 139.189,202.873 139.5,197.5C 140.167,197.5 140.5,197.833 140.5,198.5C 141.026,201.808 139.693,203.974 136.5,205C 128.068,206.225 120.068,204.891 112.5,201C 109.875,198.804 108.875,195.97 109.5,192.5C 110.167,192.167 110.833,191.833 111.5,191.5 Z"/></g>
<g><path style="opacity:1" fill="#fefa9e" d="M 157.5,205.5 C 152.243,209.318 146.243,210.985 139.5,210.5C 145.413,208.844 151.413,207.178 157.5,205.5 Z"/></g>
</svg>
