<?xml version="1.0" standalone="no"?>
<!DOCTYPE svg PUBLIC "-//W3C//DTD SVG 20010904//EN"
 "http://www.w3.org/TR/2001/REC-SVG-20010904/DTD/svg10.dtd">
<svg version="1.0" xmlns="http://www.w3.org/2000/svg"
 width="512.000000pt" height="533.000000pt" viewBox="0 0 512.000000 533.000000"
 preserveAspectRatio="xMidYMid meet">
<metadata>
Created by potrace 1.16, written by Peter Selinger 2001-2019
</metadata>
<g transform="translate(0.000000,533.000000) scale(0.100000,-0.100000)"
fill="#000000" stroke="none">
<path d="M940 4625 c-313 -70 -528 -378 -481 -685 14 -91 349 -998 387 -1047
14 -18 44 -43 67 -56 l42 -22 702 -5 c688 -5 702 -5 730 -26 42 -30 75 -101
68 -144 -10 -54 -42 -97 -89 -119 -42 -21 -55 -21 -722 -21 l-680 0 -53 -26
c-32 -16 -61 -40 -76 -63 -22 -34 -339 -875 -366 -971 -19 -68 -16 -233 5
-305 57 -193 208 -353 394 -417 58 -20 86 -23 202 -22 111 0 145 4 190 21 60
22 2820 1327 2964 1401 323 166 431 568 235 877 -44 70 -127 151 -192 189 -86
50 -2925 1390 -3003 1417 -102 36 -229 46 -324 24z"/>
</g>
</svg>
