<svg xmlns="http://www.w3.org/2000/svg" xmlns:xlink="http://www.w3.org/1999/xlink" width="200" zoomAndPan="magnify" viewBox="0 0 150 163.5" height="218" preserveAspectRatio="xMidYMid meet" version="1.0"><defs><clipPath id="b695588738"><path d="M 2.472656 23 L 147.53125 23 L 147.53125 161.785156 L 2.472656 161.785156 Z M 2.472656 23 " clip-rule="nonzero"/></clipPath><clipPath id="3cdbf90eef"><path d="M 45 23 L 147.53125 23 L 147.53125 161.785156 L 45 161.785156 Z M 45 23 " clip-rule="nonzero"/></clipPath><clipPath id="88ea1912ff"><path d="M 59 1.027344 L 111 1.027344 L 111 35 L 59 35 Z M 59 1.027344 " clip-rule="nonzero"/></clipPath></defs><g clip-path="url(#b695588738)"><path fill="#fd0000" d="M 54.527344 32.949219 C 50.382812 32.972656 46.242188 33.140625 42.117188 33.597656 C 38.902344 33.957031 35.71875 34.460938 32.585938 35.261719 C 20.5625 38.34375 12.042969 45.617188 6.796875 56.796875 C 4.753906 61.152344 4.253906 65.882812 3.5 70.546875 C 3.042969 73.394531 2.867188 76.277344 2.765625 79.15625 C 2.636719 82.65625 2.484375 86.160156 2.699219 89.671875 C 2.890625 92.820312 3.246094 95.945312 3.769531 99.054688 C 4.558594 103.703125 6.0625 108.140625 7.914062 112.460938 C 10.554688 118.625 13.917969 124.402344 17.625 129.980469 C 20.351562 134.082031 23.332031 137.992188 26.683594 141.613281 C 29.40625 144.550781 32.351562 147.257812 35.332031 149.925781 C 37.511719 151.875 39.746094 153.765625 42.238281 155.332031 C 44.964844 157.039062 47.824219 158.457031 50.878906 159.480469 C 50.921875 159.523438 50.972656 159.558594 51.027344 159.585938 C 53.554688 160.492188 56.003906 161.652344 58.792969 161.6875 C 60.132812 161.710938 61.457031 161.785156 62.785156 161.546875 C 65.117188 161.125 67.324219 160.308594 69.542969 159.507812 C 72.109375 158.582031 74.660156 157.609375 77.367188 157.105469 C 78.089844 156.96875 78.816406 156.851562 79.542969 156.753906 C 81.230469 156.519531 82.914062 156.367188 84.617188 156.273438 C 85.507812 156.222656 86.410156 156.085938 87.292969 156.175781 C 88.695312 156.320312 90.078125 156.65625 91.476562 156.847656 C 93.046875 157.058594 94.597656 157.398438 96.175781 157.558594 C 97.46875 157.6875 98.757812 157.769531 100.054688 157.835938 C 102.136719 157.949219 104.226562 158.109375 106.292969 157.796875 C 110.246094 157.195312 113.726562 155.554688 116.578125 152.746094 C 118.242188 151.105469 119.769531 149.324219 121.339844 147.589844 C 122.835938 145.933594 124.378906 144.316406 125.652344 142.476562 C 128.355469 138.570312 130.910156 134.566406 133.238281 130.417969 C 135.457031 126.464844 137.585938 122.472656 139.148438 118.199219 C 139.90625 116.128906 140.378906 113.964844 141.210938 111.925781 C 142.898438 107.796875 144.425781 103.613281 145.382812 99.25 C 146.046875 96.21875 146.601562 93.171875 146.894531 90.078125 C 147.113281 87.777344 147.316406 85.480469 147.410156 83.167969 C 147.515625 80.679688 147.195312 78.203125 147.289062 75.714844 C 147.324219 75.117188 147.308594 74.523438 147.234375 73.925781 C 146.917969 71.671875 146.5625 69.421875 146.128906 67.1875 C 145.257812 62.59375 144.039062 58.097656 142.46875 53.691406 C 141.683594 51.511719 140.554688 49.484375 139.6875 47.347656 C 138.300781 43.921875 136.277344 40.96875 133.695312 38.382812 C 131.367188 36.050781 128.984375 33.765625 126.457031 31.648438 C 123.3125 29.019531 119.808594 27.042969 115.84375 25.960938 C 111.300781 24.71875 106.6875 23.90625 101.957031 23.886719 " fill-opacity="1" fill-rule="nonzero"/></g><g clip-path="url(#3cdbf90eef)"><path fill="#d10001" d="M 54.527344 32.929688 C 54.472656 33.269531 56.019531 36.207031 55.792969 36.28125 C 54.421875 36.753906 52.25 37.351562 51.085938 38.207031 C 50.074219 38.953125 49.125 39.804688 49.007812 41.195312 C 48.980469 41.550781 48.78125 41.566406 48.523438 41.460938 C 48.328125 41.378906 48.140625 41.28125 47.960938 41.164062 C 47.292969 40.71875 46.628906 40.257812 45.957031 39.8125 C 45.714844 39.648438 45.488281 39.570312 45.230469 39.847656 C 44.976562 40.125 45.0625 40.347656 45.222656 40.585938 C 45.726562 41.320312 46.285156 41.992188 47.03125 42.53125 C 47.988281 43.21875 49.046875 43.703125 50.085938 44.214844 C 53.335938 45.804688 56.839844 46.382812 60.410156 46.617188 C 62.734375 46.769531 64.957031 46.230469 67.152344 45.535156 L 67.71875 45.351562 C 68.035156 45.246094 68.351562 45.140625 68.660156 45.035156 L 69.054688 44.898438 C 69.363281 44.796875 69.667969 44.691406 69.976562 44.574219 L 70.539062 44.378906 L 71.066406 44.191406 C 72.765625 43.585938 74.464844 42.992188 76.207031 42.519531 C 79.449219 41.644531 82.730469 41.023438 86.097656 41.019531 C 88.410156 41.035156 90.703125 41.257812 92.976562 41.679688 C 94.640625 41.980469 96.355469 42.140625 97.929688 42.75 C 100.984375 43.933594 103.695312 45.730469 106.09375 47.957031 C 108.273438 49.980469 110.140625 52.300781 111.929688 54.667969 C 114.667969 58.296875 117.214844 62.050781 118.917969 66.308594 C 119.886719 68.734375 120.800781 71.1875 121.296875 73.75 C 122.015625 77.5 122.363281 81.3125 122.722656 85.109375 C 122.917969 87.214844 123.066406 89.332031 123.09375 91.445312 C 123.125 93.585938 123.160156 95.730469 123.023438 97.878906 C 122.875 100.328125 122.5625 102.753906 122.09375 105.164062 C 121.5 108.199219 120.691406 111.183594 119.566406 114.070312 C 118.988281 115.550781 118.238281 116.960938 117.625 118.429688 C 115.894531 122.601562 114.550781 126.921875 112.808594 131.09375 C 111.351562 134.597656 109.308594 137.71875 106.671875 140.449219 C 104.609375 142.589844 102.460938 144.640625 100.132812 146.503906 C 98.453125 147.847656 96.765625 149.15625 94.792969 150.046875 C 93.453125 150.648438 92.097656 151.074219 90.570312 151.0625 C 87.679688 151.039062 84.785156 150.886719 81.894531 151.152344 C 80.882812 151.246094 79.886719 151.425781 78.90625 151.6875 L 78.800781 151.714844 C 78.695312 151.746094 78.582031 151.777344 78.472656 151.808594 L 78.296875 151.859375 L 78.015625 151.945312 C 77.863281 151.996094 77.710938 152.050781 77.558594 152.101562 C 77.480469 152.128906 77.398438 152.15625 77.316406 152.1875 L 77.097656 152.269531 L 76.871094 152.355469 C 76.796875 152.386719 76.722656 152.414062 76.648438 152.445312 C 76.5 152.503906 76.355469 152.566406 76.210938 152.628906 C 75.789062 152.816406 75.371094 153.015625 74.960938 153.230469 C 74.917969 153.253906 74.871094 153.277344 74.824219 153.300781 L 74.675781 153.382812 C 74.609375 153.421875 74.539062 153.457031 74.464844 153.496094 C 74.25 153.617188 74.035156 153.742188 73.820312 153.871094 C 70.625 155.804688 67.519531 157.890625 63.933594 159.089844 C 61.230469 159.988281 58.503906 160.339844 55.675781 159.878906 C 54.074219 159.621094 52.46875 159.359375 50.835938 159.46875 L 50.851562 159.46875 C 50.898438 159.511719 50.945312 159.546875 51 159.574219 C 53.53125 160.480469 55.976562 161.640625 58.765625 161.675781 C 59.328125 161.6875 59.890625 161.703125 60.453125 161.703125 C 61.191406 161.714844 61.925781 161.65625 62.660156 161.535156 C 64.988281 161.113281 67.199219 160.296875 69.414062 159.496094 C 71.984375 158.570312 74.53125 157.597656 77.238281 157.09375 C 77.964844 156.957031 78.6875 156.839844 79.414062 156.742188 C 81.101562 156.507812 82.785156 156.355469 84.488281 156.261719 C 85.175781 156.222656 85.871094 156.132812 86.554688 156.136719 C 86.792969 156.132812 87.03125 156.140625 87.269531 156.164062 C 88.671875 156.308594 90.054688 156.644531 91.453125 156.835938 C 93.023438 157.046875 94.574219 157.386719 96.152344 157.546875 C 97.445312 157.675781 98.734375 157.757812 100.03125 157.824219 C 101.191406 157.886719 102.34375 157.964844 103.496094 157.964844 C 104.390625 157.972656 105.28125 157.910156 106.167969 157.785156 C 110.117188 157.183594 113.597656 155.542969 116.449219 152.734375 C 118.113281 151.09375 119.640625 149.3125 121.210938 147.578125 C 122.707031 145.921875 124.253906 144.304688 125.523438 142.464844 C 128.226562 138.558594 130.78125 134.554688 133.109375 130.40625 C 135.332031 126.453125 137.460938 122.460938 139.019531 118.1875 C 139.777344 116.117188 140.25 113.953125 141.085938 111.914062 C 142.769531 107.785156 144.296875 103.601562 145.253906 99.238281 C 145.917969 96.207031 146.472656 93.160156 146.765625 90.066406 C 146.984375 87.765625 147.1875 85.46875 147.28125 83.15625 C 147.386719 80.667969 147.066406 78.191406 147.160156 75.703125 C 147.195312 75.105469 147.179688 74.511719 147.105469 73.914062 C 146.789062 71.660156 146.433594 69.414062 146 67.175781 C 145.128906 62.582031 143.910156 58.085938 142.339844 53.679688 C 141.554688 51.5 140.425781 49.472656 139.5625 47.335938 C 138.171875 43.914062 136.148438 40.957031 133.566406 38.371094 C 131.238281 36.039062 128.859375 33.753906 126.328125 31.636719 C 123.183594 29.007812 119.679688 27.03125 115.714844 25.949219 C 111.203125 24.714844 106.621094 23.90625 101.925781 23.875 L 63.6875 31.183594 " fill-opacity="1" fill-rule="nonzero"/></g><path fill="#feaf91" d="M 26.375 55.359375 C 26.128906 60.828125 25.160156 66.15625 22.8125 71.171875 C 22.1875 72.507812 21.390625 73.738281 20.285156 74.742188 C 19.5625 75.398438 18.753906 75.898438 17.753906 75.976562 C 16.101562 76.105469 15.003906 75.265625 14.289062 73.871094 C 13.628906 72.582031 13.429688 71.167969 13.367188 69.742188 C 13.261719 67.296875 13.761719 64.925781 14.386719 62.582031 C 15.253906 59.339844 16.507812 56.261719 18.578125 53.585938 C 19.339844 52.601562 20.242188 51.71875 21.105469 50.808594 C 21.925781 49.941406 22.910156 49.390625 24.128906 49.761719 C 25.402344 50.148438 25.875 51.230469 26.121094 52.421875 C 26.320312 53.378906 26.3125 54.359375 26.375 55.359375 Z M 26.375 55.359375 " fill-opacity="1" fill-rule="nonzero"/><path fill="#feaf90" d="M 13.335938 84.621094 C 13.316406 83.824219 13.398438 83.050781 13.742188 82.320312 C 14.542969 80.613281 16.410156 80.285156 17.71875 81.640625 C 18.699219 82.660156 19.085938 83.96875 19.421875 85.289062 C 19.804688 86.789062 19.949219 88.308594 19.480469 89.8125 C 19.160156 90.847656 18.640625 91.789062 17.433594 91.917969 C 16.195312 92.050781 15.320312 91.351562 14.875 90.28125 C 14.117188 88.464844 13.335938 86.640625 13.335938 84.621094 Z M 13.335938 84.621094 " fill-opacity="1" fill-rule="nonzero"/><path fill="#8d4314" d="M 62.167969 18.484375 C 61.601562 16.207031 60.921875 13.960938 60.132812 11.753906 C 59.214844 9.191406 58.164062 6.703125 56.257812 4.675781 C 54.5 2.8125 53.59375 2.671875 51.363281 3.9375 C 51.34375 3.949219 51.328125 3.964844 51.3125 3.976562 C 47.332031 6.046875 43.757812 8.566406 41.542969 12.621094 C 41.023438 13.253906 41.578125 13.496094 41.964844 13.800781 C 42.125 13.972656 42.277344 14.144531 42.445312 14.304688 C 45.628906 17.375 48.347656 20.8125 50.605469 24.617188 C 52.183594 27.289062 53.359375 30.144531 54.421875 33.046875 C 54.894531 33.992188 55.265625 34.976562 55.542969 35.992188 C 56.335938 37.964844 56.675781 40.039062 56.921875 42.125 C 57.035156 43.101562 57.238281 43.914062 58.332031 44.171875 C 58.558594 44.238281 58.777344 44.3125 58.988281 44.402344 L 59.027344 44.378906 L 58.988281 44.402344 L 59.363281 44.492188 C 61.203125 44.949219 62.929688 44.871094 64.386719 43.441406 C 64.804688 43.019531 65.03125 42.539062 64.941406 41.957031 C 64.746094 40.636719 64.632812 39.3125 64.601562 37.980469 C 64.582031 36.707031 64.496094 35.4375 64.34375 34.175781 " fill-opacity="1" fill-rule="nonzero"/><path fill="#8e4416" d="M 51.3125 3.875 C 52.5625 4.484375 52.667969 5.917969 51.578125 7.117188 C 50.320312 8.503906 48.777344 9.503906 47.191406 10.453125 C 45.980469 11.160156 44.71875 11.757812 43.398438 12.242188 C 42.78125 12.476562 42.183594 12.59375 41.539062 12.515625 C 43.757812 8.464844 47.332031 5.945312 51.3125 3.875 Z M 51.3125 3.875 " fill-opacity="1" fill-rule="nonzero"/><path fill="#6c280b" d="M 64.386719 43.34375 C 64.738281 43 64.949219 42.609375 64.964844 42.160156 C 64.960938 42.097656 64.957031 42.03125 64.945312 41.964844 C 64.746094 40.644531 64.632812 39.316406 64.601562 37.980469 C 64.582031 36.707031 64.496094 35.4375 64.34375 34.175781 L 62.167969 18.488281 C 61.601562 16.207031 60.921875 13.964844 60.132812 11.753906 C 59.214844 9.191406 58.164062 6.703125 56.257812 4.675781 C 54.507812 2.824219 53.601562 2.675781 51.398438 3.917969 C 52.566406 4.550781 52.640625 5.945312 51.578125 7.117188 C 50.320312 8.5 48.777344 9.5 47.191406 10.449219 C 45.980469 11.15625 44.71875 11.753906 43.398438 12.238281 C 42.820312 12.476562 42.21875 12.570312 41.597656 12.519531 L 41.539062 12.617188 C 41.429688 12.734375 41.359375 12.871094 41.328125 13.027344 C 41.363281 13.3125 41.699219 13.492188 41.960938 13.695312 C 42.621094 13.691406 43.300781 13.78125 43.9375 13.660156 C 46.308594 13.214844 48.46875 12.234375 50.449219 10.882812 C 51.734375 10 53.367188 10.023438 54.347656 11.203125 C 55.664062 12.75 56.710938 14.464844 57.484375 16.34375 C 58.230469 18.195312 58.65625 20.140625 59.09375 22.082031 C 59.445312 23.621094 60.289062 27.59375 60.628906 29.128906 C 60.628906 29.101562 61.070312 33.289062 61.09375 33.273438 C 61.117188 33.40625 61.132812 33.535156 61.140625 33.671875 C 61.234375 35.667969 61.316406 37.65625 61.277344 39.65625 C 61.277344 39.824219 61.300781 39.992188 61.3125 40.160156 C 61.507812 42.628906 61.4375 43.433594 59.144531 44.195312 C 59.089844 44.222656 59.035156 44.253906 58.984375 44.292969 L 59.355469 44.382812 C 61.207031 44.847656 62.933594 44.769531 64.386719 43.34375 Z M 64.386719 43.34375 " fill-opacity="1" fill-rule="nonzero"/><g clip-path="url(#88ea1912ff)"><path fill="#1ad319" d="M 109.835938 1.410156 C 109.625 1.386719 109.414062 1.375 109.203125 1.363281 C 107.570312 1.261719 105.9375 1.101562 104.300781 1.078125 C 101.21875 1.03125 98.128906 1.046875 95.042969 1.070312 C 93.46875 1.085938 91.902344 1.222656 90.347656 1.484375 C 86.917969 2.066406 83.59375 3.03125 80.339844 4.25 C 72.722656 7.109375 66.394531 11.5625 62.316406 18.796875 C 62.265625 18.964844 62.21875 19.132812 62.167969 19.300781 C 62.191406 19.417969 62.15625 19.507812 62.058594 19.570312 C 61.160156 21.3125 60.695312 23.179688 60.390625 25.097656 C 60.304688 25.636719 60.210938 26.175781 60.125 26.714844 C 60.0625 27.789062 59.980469 28.863281 59.992188 29.945312 C 60 30.582031 60.132812 31.207031 60.144531 31.839844 C 60.152344 32.4375 60.660156 32.589844 61.027344 32.867188 C 62.144531 33.238281 63.195312 33.785156 64.34375 34.066406 C 66.644531 34.550781 68.980469 34.6875 71.320312 34.605469 C 75.375 34.464844 79.429688 34.320312 83.445312 33.617188 C 88.355469 32.757812 92.914062 31.023438 97.074219 28.277344 C 98.90625 27.074219 100.378906 25.476562 101.855469 23.886719 C 101.984375 23.71875 102.113281 23.546875 102.242188 23.382812 C 103.863281 21.3125 105.554688 19.296875 106.902344 17.03125 C 108.773438 13.886719 109.773438 10.4375 110.351562 6.847656 C 110.582031 5.425781 110.8125 4.007812 110.851562 2.5625 C 110.875 1.761719 110.617188 1.492188 109.835938 1.410156 Z M 61.605469 21.820312 C 61.582031 21.925781 61.554688 22.023438 61.53125 22.125 C 61.558594 22.027344 61.585938 21.925781 61.609375 21.824219 Z M 61.605469 21.820312 " fill-opacity="1" fill-rule="nonzero"/><path fill="#009f02" d="M 101.855469 23.886719 C 100.378906 25.476562 98.90625 27.074219 97.074219 28.28125 C 92.914062 31.023438 88.355469 32.757812 83.445312 33.617188 C 79.429688 34.320312 75.375 34.464844 71.320312 34.605469 C 68.976562 34.6875 66.644531 34.554688 64.34375 34.066406 C 63.195312 33.785156 62.144531 33.238281 61.027344 32.867188 C 60.660156 32.589844 60.152344 32.4375 60.144531 31.839844 C 60.132812 31.207031 60 30.582031 59.992188 29.945312 C 59.980469 28.867188 60.0625 27.792969 60.125 26.714844 C 60.210938 26.175781 60.304688 25.636719 60.390625 25.097656 C 60.695312 23.179688 61.160156 21.3125 62.058594 19.574219 C 61.914062 20.964844 61.425781 22.285156 61.195312 23.664062 C 60.890625 25.382812 60.871094 27.105469 61.136719 28.828125 C 61.179688 29.144531 61.265625 29.449219 61.398438 29.738281 C 61.714844 30.382812 61.765625 30.394531 62.265625 29.875 C 64.429688 27.609375 66.878906 25.679688 69.351562 23.773438 C 73.167969 20.835938 77.183594 18.179688 81.261719 15.617188 C 85.089844 13.207031 89.007812 10.953125 93.035156 8.882812 C 96.019531 7.347656 99.042969 5.878906 102.09375 4.480469 C 104.445312 3.398438 106.8125 2.359375 109.203125 1.363281 C 109.414062 1.378906 109.625 1.386719 109.835938 1.410156 C 110.613281 1.492188 110.871094 1.761719 110.847656 2.566406 C 110.808594 4.007812 110.578125 5.433594 110.351562 6.851562 C 109.773438 10.441406 108.769531 13.890625 106.898438 17.035156 C 105.554688 19.300781 103.859375 21.316406 102.238281 23.386719 C 102.113281 23.550781 101.984375 23.71875 101.855469 23.886719 Z M 101.855469 23.886719 " fill-opacity="1" fill-rule="nonzero"/></g></svg>