<?xml version="1.0" standalone="no"?>
<!DOCTYPE svg PUBLIC "-//W3C//DTD SVG 20010904//EN"
 "http://www.w3.org/TR/2001/REC-SVG-20010904/DTD/svg10.dtd">
<svg version="1.0" xmlns="http://www.w3.org/2000/svg"
 width="512.000000pt" height="512.000000pt" viewBox="0 0 512.000000 512.000000"
 preserveAspectRatio="xMidYMid meet">

<g transform="translate(0.000000,512.000000) scale(0.100000,-0.100000)"
fill="#000000" stroke="none">
<path d="M3840 5053 c-99 -27 -154 -65 -284 -196 l-119 -119 649 -649 c357
-357 651 -648 654 -647 3 2 60 60 128 130 94 98 130 143 153 192 60 129 60
264 -1 394 -28 61 -66 102 -398 435 -202 202 -387 381 -411 397 -107 72 -249
95 -371 63z"/>
<path d="M3061 4408 l-152 -142 677 -677 678 -678 55 50 c31 27 101 91 156
143 l100 95 -675 676 c-371 371 -678 675 -681 675 -3 0 -74 -64 -158 -142z"/>
<path d="M1944 3289 c-1361 -1348 -1436 -1424 -1449 -1454 -32 -75 -466 -1577
-467 -1617 -1 -86 50 -158 133 -182 39 -12 57 -12 106 -2 99 22 1536 447 1573
466 30 16 662 636 1898 1864 l332 331 -142 142 -143 142 -1084 -1077 -1084
-1077 -431 -127 -431 -127 -92 92 -92 92 134 454 133 454 1066 1066 1066 1066
-128 128 -128 128 -770 -762z"/>
<path d="M2102 2493 c-595 -591 -1081 -1077 -1080 -1079 2 -2 67 -17 143 -34
77 -17 147 -33 156 -36 12 -3 20 -35 34 -132 10 -70 21 -133 24 -139 4 -8 418
399 1084 1065 l1077 1077 -177 177 -178 177 -1083 -1076z"/>
</g>
</svg>
