<svg xmlns="http://www.w3.org/2000/svg" xmlns:xlink="http://www.w3.org/1999/xlink" width="200" zoomAndPan="magnify" viewBox="0 0 150 163.5" height="218" preserveAspectRatio="xMidYMid meet" version="1.0"><defs><clipPath id="a407829c01"><path d="M 3.207031 29 L 146.769531 29 L 146.769531 161.105469 L 3.207031 161.105469 Z M 3.207031 29 " clip-rule="nonzero"/></clipPath><clipPath id="b8f437080a"><path d="M 7 29 L 146.769531 29 L 146.769531 161.105469 L 7 161.105469 Z M 7 29 " clip-rule="nonzero"/></clipPath><clipPath id="020d109921"><path d="M 98 1.84375 L 143 1.84375 L 143 53 L 98 53 Z M 98 1.84375 " clip-rule="nonzero"/></clipPath><clipPath id="dadebf2d19"><path d="M 3.207031 145 L 12 145 L 12 158 L 3.207031 158 Z M 3.207031 145 " clip-rule="nonzero"/></clipPath><clipPath id="887d06eea4"><path d="M 98 1.84375 L 119 1.84375 L 119 10 L 98 10 Z M 98 1.84375 " clip-rule="nonzero"/></clipPath></defs><g clip-path="url(#a407829c01)"><path fill="#ffe082" d="M 118.796875 29.714844 C 122.777344 29.714844 146.671875 25.734375 146.671875 61.566406 C 146.671875 97.402344 94.902344 161.105469 23.21875 161.105469 C 15.253906 161.105469 7.289062 157.125 7.289062 157.125 L 3.304688 145.179688 C 3.304688 145.179688 7.289062 129.253906 31.183594 117.308594 C 55.078125 105.363281 72.054688 95.355469 82.210938 85.207031 C 90.175781 77.246094 102.867188 61.566406 102.867188 49.621094 C 102.867188 41.828125 110.832031 33.695312 110.832031 33.695312 " fill-opacity="1" fill-rule="nonzero"/></g><g clip-path="url(#b8f437080a)"><path fill="#ffca28" d="M 11.269531 149.160156 C 11.269531 149.160156 39.148438 141.199219 63.042969 129.253906 C 86.9375 117.308594 138.707031 81.476562 122.777344 29.714844 C 122.777344 29.714844 146.671875 25.734375 146.671875 61.566406 C 146.671875 97.402344 94.902344 161.105469 23.21875 161.105469 C 15.253906 161.105469 7.289062 157.125 7.289062 157.125 Z M 11.269531 149.160156 " fill-opacity="1" fill-rule="nonzero"/></g><g clip-path="url(#020d109921)"><path fill="#c0ca33" d="M 142.941406 41.414062 C 135.472656 25.402344 118.796875 33.695312 118.796875 1.84375 C 106.847656 1.84375 98.882812 9.808594 98.882812 9.808594 C 98.882812 9.808594 110.832031 21.75 110.832031 33.695312 C 118.796875 33.695312 125.214844 33.070312 125.929688 52.609375 C 131.3125 29.796875 142.941406 41.414062 142.941406 41.414062 Z M 142.941406 41.414062 " fill-opacity="1" fill-rule="nonzero"/></g><path fill="#c0ca33" d="M 102.867188 49.621094 C 102.867188 49.621094 102.617188 42.402344 110.832031 33.695312 C 119.046875 24.988281 126.882812 32.078125 126.882812 32.078125 L 125.929688 52.609375 C 125.929688 52.609375 122.445312 39.667969 116.96875 39.339844 C 105.417969 38.640625 102.867188 49.621094 102.867188 49.621094 Z M 102.867188 49.621094 " fill-opacity="1" fill-rule="nonzero"/><g clip-path="url(#dadebf2d19)"><path fill="#5d4037" d="M 3.304688 149.160156 L 7.289062 157.125 L 11.269531 157.125 L 11.269531 149.160156 L 3.304688 145.179688 Z M 3.304688 149.160156 " fill-opacity="1" fill-rule="nonzero"/></g><g clip-path="url(#887d06eea4)"><path fill="#827717" d="M 118.796875 1.84375 C 106.847656 1.84375 98.882812 9.808594 98.882812 9.808594 L 110.832031 9.808594 Z M 118.796875 1.84375 " fill-opacity="1" fill-rule="nonzero"/></g></svg>